<svg xmlns="http://www.w3.org/2000/svg" viewBox="0 0 360 420">
  <g stroke="#13213d" stroke-linecap="round" stroke-linejoin="round">
    <ellipse cx="180" cy="397" rx="91" ry="13" fill="#13213d" opacity=".12" stroke="none"/>
    <path d="M112 383c5-76 14-124 68-124s63 48 68 124" fill="#3867d6" stroke-width="6"/>
    <path d="M151 267l29 33 29-33 15 116h-88z" fill="#fff" stroke-width="5"/>
    <path d="M164 267v-25h32v25l-16 27z" fill="#efb69a" stroke-width="5"/>
    <path d="M115 126c0-67 130-78 135 4l-5 82c-5 48-35 67-65 67s-60-19-65-67z" fill="#f4bea1" stroke-width="6"/>
    <path d="M116 173c-18-70 8-118 61-118 69 0 88 58 70 121-9-36-20-61-44-78-20 20-45 28-87 30z" fill="#2b2b43" stroke-width="6"/>
    <circle cx="219" cy="57" r="31" fill="#2b2b43" stroke-width="6"/>
    <path d="M145 181h21M196 181h21" stroke-width="8"/>
    <path d="M164 222c12 15 26 15 38 0" fill="none" stroke-width="5"/>
    <path d="M116 296c-35 6-49 34-53 70M244 294c36-12 56-49 61-91" fill="none" stroke="#3867d6" stroke-width="30"/>
    <path d="M305 203l1-55" fill="none" stroke="#f4bea1" stroke-width="22"/>
    <path d="M306 148l-3-35M306 148l24-30" fill="none" stroke="#f4bea1" stroke-width="12"/>
  </g>
</svg>
